<svg width="19" height="24" viewBox="0 0 19 24" fill="none" xmlns="http://www.w3.org/2000/svg">
<path d="M9.49961 12.8498C11.3774 12.8498 12.8996 11.3276 12.8996 9.4498C12.8996 7.57204 11.3774 6.0498 9.49961 6.0498C7.62184 6.0498 6.09961 7.57204 6.09961 9.4498C6.09961 11.3276 7.62184 12.8498 9.49961 12.8498Z" stroke="black" stroke-width="1.7" stroke-linecap="round" stroke-linejoin="round"/>
<path d="M18 9.4502C18 17.1002 9.5 23.0502 9.5 23.0502C9.5 23.0502 1 17.1002 1 9.4502C1 7.19586 1.89553 5.03385 3.48959 3.43979C5.08365 1.84573 7.24566 0.950195 9.5 0.950195C11.7543 0.950195 13.9163 1.84573 15.5104 3.43979C17.1045 5.03385 18 7.19586 18 9.4502V9.4502Z" stroke="black" stroke-width="1.7" stroke-linecap="round" stroke-linejoin="round"/>
</svg>
