<svg width="20" height="23" viewBox="0 0 20 23" fill="none" xmlns="http://www.w3.org/2000/svg">
<path d="M18.2964 8.41278H1.82364C1.36875 8.41278 1 8.78154 1 9.23642V20.7673C1 21.2222 1.36875 21.591 1.82364 21.591H18.2964C18.7512 21.591 19.12 21.2222 19.12 20.7673V9.23642C19.12 8.78154 18.7512 8.41278 18.2964 8.41278Z" stroke="#101010" stroke-width="1.66667" stroke-linecap="round" stroke-linejoin="round"/>
<path d="M6.34961 8.41273V4.70636C6.34961 3.72337 6.7401 2.78065 7.43518 2.08557C8.13026 1.39049 9.07298 1 10.056 1C11.039 1 11.9817 1.39049 12.6768 2.08557C13.3718 2.78065 13.7623 3.72337 13.7623 4.70636V8.41273" stroke="#101010" stroke-width="1.66667" stroke-linecap="round" stroke-linejoin="round"/>
<path d="M10.0577 16.2373C10.74 16.2373 11.2932 15.6842 11.2932 15.0019C11.2932 14.3196 10.74 13.7664 10.0577 13.7664C9.3754 13.7664 8.82227 14.3196 8.82227 15.0019C8.82227 15.6842 9.3754 16.2373 10.0577 16.2373Z" fill="#101010"/>
</svg>
