<svg width="26" height="22" viewBox="0 0 26 22" fill="none" xmlns="http://www.w3.org/2000/svg">
<path d="M19.8958 9.40116L11.5625 2.04547C11.4089 1.90896 11.2082 1.83325 11 1.83325C10.7918 1.83325 10.5911 1.90896 10.4375 2.04547L2.10415 9.40116C2.02029 9.47809 1.95313 9.57053 1.90661 9.67306C1.8601 9.77558 1.83518 9.8861 1.83331 9.99812V19.3572C1.83331 19.5718 1.92111 19.7777 2.07739 19.9295C2.23367 20.0813 2.44563 20.1666 2.66665 20.1666H19.3333C19.5543 20.1666 19.7663 20.0813 19.9226 19.9295C20.0788 19.7777 20.1666 19.5718 20.1666 19.3572V9.99812C20.1648 9.8861 20.1399 9.77558 20.0933 9.67306C20.0468 9.57053 19.9797 9.47809 19.8958 9.40116V9.40116Z" stroke="#101010" stroke-width="2" stroke-linecap="round" stroke-linejoin="round"/>
</svg>
