<svg width="20" height="20" viewBox="0 0 20 20" fill="none" xmlns="http://www.w3.org/2000/svg">
<path opacity="0.85" d="M18.7341 8.43032L10.5523 1.20836C10.4014 1.07433 10.2044 1 10 1C9.79558 1 9.59856 1.07433 9.44773 1.20836L1.26591 8.43032C1.18358 8.50584 1.11764 8.59661 1.07197 8.69726C1.0263 8.79792 1.00183 8.90643 1 9.01642V18.2053C1 18.4161 1.0862 18.6182 1.23964 18.7672C1.39308 18.9163 1.60119 19 1.81818 19H18.1818C18.3988 19 18.6069 18.9163 18.7604 18.7672C18.9138 18.6182 19 18.4161 19 18.2053V9.01642C18.9982 8.90643 18.9737 8.79792 18.928 8.69726C18.8824 8.59661 18.8164 8.50584 18.7341 8.43032V8.43032Z" stroke="white" stroke-width="2" stroke-linecap="round" stroke-linejoin="round"/>
</svg>
