<svg  viewBox="0 0 45 36" fill="none" xmlns="http://www.w3.org/2000/svg">
<path d="M9.36707 3.46973V13.5925C9.36707 20.886 15.2092 26.9302 22.5027 26.9853C24.2475 26.9974 25.9774 26.6642 27.5929 26.0049C29.2084 25.3456 30.6774 24.3732 31.9154 23.1437C33.1535 21.9142 34.136 20.4519 34.8065 18.8411C35.477 17.2302 35.8222 15.5026 35.8221 13.7578V3.46973C35.8221 3.07993 35.6673 2.7061 35.3916 2.43047C35.116 2.15485 34.7422 2 34.3524 2H10.8368C10.447 2 10.0732 2.15485 9.79754 2.43047C9.52191 2.7061 9.36707 3.07993 9.36707 3.46973Z" stroke="#101010" stroke-width="3" stroke-linecap="round" stroke-linejoin="round"/>
<path d="M16.7163 34.3346H28.4741" stroke="#101010" stroke-width="3" stroke-linecap="round" stroke-linejoin="round"/>
<path d="M22.5956 26.986V34.3346" stroke="#101010" stroke-width="3" stroke-linecap="round" stroke-linejoin="round"/>
<path d="M35.4917 16.6957H37.2921C38.8513 16.6957 40.3466 16.0763 41.4491 14.9738C42.5516 13.8713 43.171 12.376 43.171 10.8168V7.87738C43.171 7.48758 43.0162 7.11375 42.7405 6.83813C42.4649 6.5625 42.0911 6.40765 41.7013 6.40765H35.8224" stroke="#101010" stroke-width="3" stroke-linecap="round" stroke-linejoin="round"/>
<path d="M9.73443 16.6957H7.8789C6.31972 16.6957 4.8244 16.0763 3.72189 14.9738C2.61938 13.8713 2 12.376 2 10.8168V7.87738C2 7.48758 2.15485 7.11375 2.43047 6.83813C2.7061 6.5625 3.07993 6.40765 3.46973 6.40765H9.34863" stroke="#101010" stroke-width="3" stroke-linecap="round" stroke-linejoin="round"/>
</svg>
