<svg width="20" height="20" viewBox="0 0 20 20" fill="none" xmlns="http://www.w3.org/2000/svg">
<path d="M6.24998 19H1.79696C1.5856 19 1.38289 18.916 1.23343 18.7666C1.08397 18.6171 1 18.4144 1 18.203V13.75C0.999642 13.6465 1.01969 13.544 1.05901 13.4483C1.09833 13.3525 1.15614 13.2655 1.22913 13.1922L13.1835 1.23776C13.2577 1.16245 13.3461 1.10266 13.4436 1.06184C13.541 1.02102 13.6457 1 13.7514 1C13.857 1 13.9617 1.02102 14.0592 1.06184C14.1566 1.10266 14.245 1.16245 14.3192 1.23776L18.7622 5.68081C18.8375 5.75496 18.8973 5.84336 18.9382 5.94084C18.979 6.03832 19 6.14295 19 6.24864C19 6.35432 18.979 6.45895 18.9382 6.55644C18.8973 6.65392 18.8375 6.74232 18.7622 6.81647L6.80785 18.7709C6.73449 18.8439 6.64746 18.9017 6.55173 18.941C6.456 18.9803 6.35346 19.0004 6.24998 19V19Z" stroke="#101010" stroke-width="1.66667" stroke-linecap="round" stroke-linejoin="round"/>
<path d="M10.5625 3.85773L16.1412 9.43645" stroke="#101010" stroke-width="1.66667" stroke-linecap="round" stroke-linejoin="round"/>
</svg>
