<svg width="118" height="118" viewBox="0 0 118 118" fill="none" xmlns="http://www.w3.org/2000/svg">
<path d="M59 115C89.9279 115 115 89.9279 115 59C115 28.0721 89.9279 3 59 3C28.0721 3 3 28.0721 3 59C3 89.9279 28.0721 115 59 115Z" stroke="black" stroke-width="6" stroke-linecap="round" stroke-linejoin="round"/>
<path d="M44.0833 56V44C44.0833 40.0218 45.6747 36.2064 48.5072 33.3934C51.3398 30.5804 55.1816 29 59.1875 29C63.1934 29 67.0352 30.5804 69.8678 33.3934C72.7003 36.2064 74.2917 40.0218 74.2917 44V56M38.0417 56H80.3333C83.6701 56 86.375 58.6863 86.375 62V83C86.375 86.3137 83.6701 89 80.3333 89H38.0417C34.7049 89 32 86.3137 32 83V62C32 58.6863 34.7049 56 38.0417 56Z" stroke="black" stroke-width="6" stroke-linecap="round" stroke-linejoin="round"/>
</svg>
