<!-- <svg width="223" height="33" viewBox="0 0 223 33" fill="none" xmlns="http://www.w3.org/2000/svg"> -->
<svg viewBox="0 0 223 33" fill="none" xmlns="http://www.w3.org/2000/svg">
<path d="M188.608 9.93945H188.608C187.619 9.93945 186.673 9.51812 186.011 8.783L180.795 2.99259C180.314 2.45998 180.357 1.63956 180.891 1.15962C181.423 0.678199 182.245 0.722707 182.723 1.25531L187.94 7.04647C188.173 7.30461 188.459 7.34319 188.608 7.34319H188.608C188.758 7.34319 189.043 7.30461 189.277 7.04573L194.492 1.25531C194.971 0.722707 195.793 0.678941 196.325 1.15888C196.859 1.63956 196.902 2.45998 196.422 2.99259L191.206 8.783C190.543 9.51886 189.596 9.93945 188.608 9.93945Z" fill="white"/>
<path d="M197.432 21.0098L195.027 20.0321C195.344 19.2547 195.504 18.4306 195.504 17.5849C195.504 17.1072 195.452 16.6325 195.35 16.1718L197.884 15.6095C198.028 16.2541 198.1 16.9188 198.1 17.5849C198.1 18.7688 197.876 19.9201 197.432 21.0098Z" fill="#EDC34C"/>
<path d="M191.861 26.2598L191.031 23.8C192.047 23.4573 192.977 22.8572 193.719 22.0672C194.282 21.4693 194.721 20.7846 195.027 20.0317L197.432 21.0086C197.006 22.059 196.393 23.0129 195.612 23.8452C194.577 24.9461 193.28 25.7806 191.861 26.2598Z" fill="#E89B3F"/>
<path d="M195.35 16.1699C195.273 15.8168 195.164 15.4689 195.027 15.1344C194.781 14.5276 194.446 13.9631 194.031 13.4542L196.042 11.8126C196.622 12.5225 197.09 13.3111 197.432 14.156C197.623 14.6248 197.777 15.1136 197.886 15.6091L195.35 16.1699Z" fill="#E5D833"/>
<path d="M194.033 13.457C193.933 13.3354 193.831 13.2174 193.722 13.1017C193.322 12.6752 192.87 12.305 192.378 12.0016C192.296 11.9519 192.215 11.9037 192.133 11.8577L193.406 9.59453C193.521 9.65832 193.632 9.72508 193.741 9.79333C194.427 10.2161 195.058 10.731 195.615 11.3244C195.762 11.4802 195.903 11.6434 196.041 11.811L194.033 13.457Z" fill="#E5F23B"/>
<path d="M192.023 8.96377C191.035 8.60993 190 8.43042 188.948 8.43042C183.901 8.43042 179.795 12.5362 179.795 17.5841C179.795 20.0291 180.747 22.3271 182.476 24.0555L182.476 24.0562C184.204 25.7846 186.503 26.7363 188.948 26.7363C189.948 26.7363 190.929 26.5754 191.865 26.2586L191.032 23.8003C190.365 24.0258 189.664 24.1401 188.948 24.1401C187.196 24.1401 185.549 23.4584 184.312 22.2203V22.2196C183.074 20.9808 182.391 19.3347 182.391 17.5841C182.391 13.9686 185.332 11.0267 188.948 11.0267C189.7 11.0267 190.44 11.155 191.147 11.4072C191.486 11.5296 191.819 11.6809 192.135 11.8582L193.403 9.59281C192.963 9.34653 192.5 9.13438 192.026 8.96451" fill="white"/>
<path d="M0 26.7949V8.84062H2.88779L9.84727 16.9847L16.8438 8.84062H19.6938V26.7949H16.8438V12.876L10.4021 20.3903H9.25458L2.8507 12.876V26.7949H0Z" fill="white"/>
<path d="M35.0198 16.2056H46.5695C46.4953 14.8986 45.9961 13.7073 45.0703 12.6332C44.1445 11.5605 42.7811 11.0227 40.9793 11.0227C39.2517 11.0227 37.8519 11.5361 36.7778 12.5597C35.7045 13.5841 35.1177 14.7992 35.0198 16.2056ZM41.868 27.2383C39.0789 27.2383 36.7348 26.3556 34.8343 24.5908C32.9339 22.8269 31.9844 20.574 31.9844 17.8346C31.9844 15.1196 32.8293 12.8683 34.5198 11.0791C36.2096 9.28992 38.4127 8.39458 41.1277 8.39458C42.5341 8.39458 43.7989 8.68536 44.9227 9.2647C46.045 9.84552 46.927 10.6036 47.5694 11.5413C48.2103 12.4796 48.6984 13.4796 49.0315 14.5403C49.3645 15.6011 49.5307 16.6752 49.5307 17.7612V18.5757H34.9827C35.18 20.4264 35.9507 21.8944 37.2963 22.9804C38.6412 24.0671 40.3629 24.6094 42.4599 24.6094C44.5332 24.6094 46.4582 24.0545 48.2355 22.9433V25.5344C46.7297 26.6701 44.6074 27.2383 41.868 27.2383Z" fill="white"/>
<path d="M65.0414 24.2397H75.4064V11.3934H67.5219C67.5219 17.2187 66.6941 21.5003 65.0414 24.2397ZM59.5625 32.0137V24.2397H61.8205C62.9065 22.7836 63.6772 20.8705 64.1342 18.502C64.5904 16.1327 64.8188 12.9118 64.8188 8.8394H78.3313V24.2397H81.6256V32.0137H78.812V26.7937H62.3754V32.0137H59.5625Z" fill="white"/>
<path d="M99.4303 24.6101C100.689 24.6101 101.855 24.3386 102.929 23.7956C104.002 23.2526 104.848 22.5858 105.465 21.7965V19.353C103.786 18.2426 101.911 17.687 99.8375 17.687C98.2583 17.687 97.018 17.9896 96.1175 18.5942C95.2162 19.1995 94.7659 20.0444 94.7659 21.1304C94.7659 22.2905 95.2102 23.1607 96.0989 23.7393C96.9868 24.3201 98.0973 24.6101 99.4303 24.6101ZM98.6158 27.2383C96.7153 27.2383 95.1049 26.7072 93.7853 25.6464C92.4641 24.5856 91.8047 23.1288 91.8047 21.278C91.8047 19.4265 92.5012 17.9778 93.8958 16.9289C95.2904 15.88 97.0365 15.3548 99.1343 15.3548C101.578 15.3548 103.687 15.9104 105.465 17.0209V15.3919C105.465 12.4804 103.54 11.0235 99.6892 11.0235C97.5921 11.0235 95.642 11.6162 93.8402 12.8008V10.0243C95.642 8.93905 97.8021 8.39532 100.319 8.39532C102.737 8.39532 104.687 8.96353 106.168 10.0985C107.649 11.2342 108.389 12.8995 108.389 15.0959V22.1659C108.389 23.7215 108.944 24.4988 110.055 24.4988C110.499 24.4988 110.844 24.4121 111.091 24.24V26.5351C110.648 26.831 110.018 26.9794 109.203 26.9794C107.303 26.9794 106.155 26.0418 105.761 24.1658C103.934 26.2139 101.553 27.2383 98.6158 27.2383Z" fill="white"/>
<path d="M120.457 26.793V24.1277C120.58 24.1774 120.827 24.2019 121.197 24.2019C121.938 24.2019 122.573 23.9608 123.104 23.4794C123.634 22.9987 124.035 22.3014 124.307 21.3883C124.578 20.4752 124.782 19.4819 124.918 18.4078C125.053 17.3344 125.134 16.0704 125.158 14.6135L125.307 8.83869H138.93V26.793H136.005V11.3927H128.12L128.009 14.6877C127.984 15.7982 127.935 16.7603 127.861 17.5748C127.787 18.39 127.669 19.3091 127.509 20.3335C127.348 21.3579 127.115 22.2213 126.806 22.9246C126.497 23.627 126.108 24.2939 125.64 24.9237C125.171 25.5527 124.572 26.0282 123.844 26.3487C123.116 26.6691 122.283 26.8301 121.346 26.8301C120.95 26.8301 120.654 26.8175 120.457 26.793Z" fill="white"/>
<path d="M152.516 26.7949V8.84062H155.477V22.5L166.583 8.84062H169.322V26.7949H166.36V13.1719L155.255 26.7949H152.516Z" fill="white"/>
<path d="M213.67 26.7949V11.3946H207.266V8.84062H222.999V11.3946H216.595V26.7949H213.67Z" fill="white"/>
</svg>
