<svg viewBox="0 0 20 22" fill="none" xmlns="http://www.w3.org/2000/svg">
<path d="M2.50925 8.33629C2.50792 7.39283 2.69327 6.45843 3.05461 5.5869C3.41595 4.71538 3.94614 3.92396 4.61466 3.25822C5.28317 2.59248 6.07679 2.06557 6.94981 1.70786C7.82283 1.35015 8.758 1.16869 9.70145 1.17394C13.6407 1.20378 16.7942 4.47658 16.7942 8.42582V9.13211C16.7942 12.6934 17.5402 14.7625 18.1968 15.8966C18.2665 16.0173 18.3033 16.1543 18.3034 16.2938C18.3035 16.4332 18.267 16.5703 18.1975 16.6912C18.128 16.8121 18.0279 16.9126 17.9073 16.9826C17.7867 17.0527 17.6499 17.0898 17.5104 17.0903H1.79301C1.65356 17.0898 1.51668 17.0527 1.39609 16.9826C1.2755 16.9126 1.17543 16.8121 1.10592 16.6912C1.0364 16.5703 0.999877 16.4332 1 16.2938C1.00012 16.1543 1.03689 16.0173 1.10662 15.8966C1.76317 14.7625 2.50925 12.6934 2.50925 9.13211V8.33629Z" stroke="#F6F6F6" stroke-width="1.84314" stroke-linecap="round" stroke-linejoin="round"/>
<path d="M6.46777 17.0898V17.8857C6.46777 18.7299 6.80315 19.5396 7.40013 20.1366C7.99711 20.7335 8.80679 21.0689 9.65104 21.0689C10.4953 21.0689 11.305 20.7335 11.902 20.1366C12.4989 19.5396 12.8343 18.7299 12.8343 17.8857V17.0898" stroke="#F6F6F6" stroke-width="1.84314" stroke-linecap="round" stroke-linejoin="round"/>
</svg>
