<svg  viewBox="0 0 48 35" fill="none" xmlns="http://www.w3.org/2000/svg">
<path d="M23.9991 26.2763C28.1889 26.2763 31.5854 22.8798 31.5854 18.69C31.5854 14.5002 28.1889 11.1037 23.9991 11.1037C19.8093 11.1037 16.4128 14.5002 16.4128 18.69C16.4128 22.8798 19.8093 26.2763 23.9991 26.2763Z" stroke="#101010" stroke-width="3" stroke-linecap="round" stroke-linejoin="round"/>
<path d="M36.8965 14.138C38.6636 14.135 40.407 14.545 41.9875 15.3353C43.5681 16.1256 44.9421 17.2743 46 18.6897" stroke="#101010" stroke-width="3" stroke-linecap="round" stroke-linejoin="round"/>
<path d="M2 18.6897C3.05791 17.2743 4.43194 16.1256 6.0125 15.3353C7.59307 14.545 9.33643 14.135 11.1036 14.138" stroke="#101010" stroke-width="3" stroke-linecap="round" stroke-linejoin="round"/>
<path d="M13.0748 33.1044C14.074 31.0581 15.6278 29.3337 17.5592 28.1274C19.4906 26.9211 21.7219 26.2816 23.9991 26.2816C26.2762 26.2816 28.5076 26.9211 30.439 28.1274C32.3704 29.3337 33.9242 31.0581 34.9234 33.1044" stroke="#101010" stroke-width="3" stroke-linecap="round" stroke-linejoin="round"/>
<path d="M11.1028 14.1381C9.95089 14.1392 8.82244 13.8126 7.8493 13.1962C6.87616 12.5799 6.09852 11.6993 5.60725 10.6574C5.11597 9.61557 4.93134 8.45539 5.07493 7.31248C5.21853 6.16956 5.68441 5.09111 6.41816 4.20314C7.1519 3.31517 8.1232 2.65435 9.21856 2.2979C10.3139 1.94144 11.4881 1.90407 12.6039 2.19015C13.7197 2.47623 14.7311 3.07395 15.5198 3.91346C16.3085 4.75298 16.842 5.79962 17.058 6.93109" stroke="#101010" stroke-width="3" stroke-linecap="round" stroke-linejoin="round"/>
<path d="M30.9421 6.93109C31.1581 5.79962 31.6916 4.75298 32.4804 3.91346C33.2691 3.07395 34.2804 2.47623 35.3963 2.19015C36.5121 1.90407 37.6862 1.94144 38.7816 2.2979C39.877 2.65435 40.8483 3.31517 41.582 4.20314C42.3157 5.09111 42.7816 6.16956 42.9252 7.31248C43.0688 8.45539 42.8842 9.61557 42.3929 10.6574C41.9016 11.6993 41.124 12.5799 40.1509 13.1962C39.1777 13.8126 38.0493 14.1392 36.8974 14.1381" stroke="#101010" stroke-width="3" stroke-linecap="round" stroke-linejoin="round"/>
</svg>
