<svg width="22" height="22" viewBox="0 0 22 22" fill="none" xmlns="http://www.w3.org/2000/svg">
<path d="M11 21C16.5228 21 21 16.5228 21 11C21 5.47715 16.5228 1 11 1C5.47715 1 1 5.47715 1 11C1 16.5228 5.47715 21 11 21Z" stroke="#101010" stroke-width="1.66667" stroke-linecap="round" stroke-linejoin="round"/>
<path d="M11.0007 14.3333C13.3018 14.3333 15.1673 12.4679 15.1673 10.1667C15.1673 7.86548 13.3018 6 11.0007 6C8.69946 6 6.83398 7.86548 6.83398 10.1667C6.83398 12.4679 8.69946 14.3333 11.0007 14.3333Z" stroke="#101010" stroke-width="1.66667" stroke-linecap="round" stroke-linejoin="round"/>
<path d="M4.3125 18.4375C4.93949 17.2025 5.89621 16.1653 7.07661 15.4408C8.257 14.7162 9.61498 14.3327 11 14.3327C12.385 14.3327 13.743 14.7162 14.9234 15.4408C16.1038 16.1653 17.0605 17.2025 17.6875 18.4375" stroke="#101010" stroke-width="1.66667" stroke-linecap="round" stroke-linejoin="round"/>
</svg>
