<svg width="118" height="118" viewBox="0 0 118 118" fill="none" xmlns="http://www.w3.org/2000/svg">
<path d="M59 115C89.9279 115 115 89.9279 115 59C115 28.0721 89.9279 3 59 3C28.0721 3 3 28.0721 3 59C3 89.9279 28.0721 115 59 115Z" stroke="black" stroke-width="6" stroke-linecap="round" stroke-linejoin="round"/>
<path d="M59 89.9538C60.9575 89.9538 62.5443 88.367 62.5443 86.4095C62.5443 84.4521 60.9575 82.8652 59 82.8652C57.0425 82.8652 55.4557 84.4521 55.4557 86.4095C55.4557 88.367 57.0425 89.9538 59 89.9538Z" fill="black"/>
<path d="M59.0011 68.3333V63.6667C62.2315 63.6667 65.3894 62.7087 68.0754 60.914C70.7614 59.1193 72.8549 56.5684 74.0911 53.5838C75.3273 50.5993 75.6508 47.3152 75.0206 44.1469C74.3903 40.9785 72.8347 38.0682 70.5505 35.7839C68.2662 33.4997 65.3559 31.9441 62.1875 31.3138C59.0192 30.6836 55.7351 31.0071 52.7506 32.2433C49.766 33.4795 47.2151 35.573 45.4204 38.259C43.6257 40.945 42.6677 44.1029 42.6677 47.3333" stroke="black" stroke-width="6" stroke-linecap="round" stroke-linejoin="round"/>
</svg>
