<svg width="24" height="24" viewBox="0 0 24 24" fill="none" xmlns="http://www.w3.org/2000/svg">
<path d="M14.9993 4.443C14.0269 4.14679 13.0158 3.99748 11.9993 4C9.99292 4.00015 8.04411 4.67074 6.46246 5.90524C4.88081 7.13973 3.75702 8.86734 3.26961 10.8136C2.7822 12.7599 2.95912 14.8133 3.77227 16.6475C4.58542 18.4817 5.98816 19.9916 7.75766 20.9374C9.52717 21.8832 11.562 22.2105 13.5388 21.8675C15.5157 21.5244 17.3212 20.5306 18.6686 19.044C20.016 17.5573 20.828 15.6631 20.9756 13.6621C21.1232 11.6612 20.598 9.66827 19.4833 8M14.9993 4.443L11.9993 1M14.9993 4.443L11.4993 7" stroke="white" stroke-width="2" stroke-linecap="round" stroke-linejoin="round"/>
</svg>
