<svg  viewBox="0 0 16 23" fill="none" xmlns="http://www.w3.org/2000/svg">
<g opacity="0.85">
<path d="M7.95329 12.1253C9.98777 12.1253 11.637 10.476 11.637 8.44157C11.637 6.40709 9.98777 4.75781 7.95329 4.75781C5.9188 4.75781 4.26953 6.40709 4.26953 8.44157C4.26953 10.476 5.9188 12.1253 7.95329 12.1253Z" stroke="#101010" stroke-width="2" stroke-linecap="round" stroke-linejoin="round"/>
<path fill-rule="evenodd" clip-rule="evenodd" d="M2 8.55388C2 5.26556 4.66571 2.59985 7.95403 2.59985C11.2423 2.59985 13.9081 5.26556 13.9081 8.55388C13.9081 10.4896 12.9843 12.2096 11.5536 13.297C11.5353 13.3098 11.5174 13.3233 11.5 13.3373C10.5095 14.0728 9.28257 14.5079 7.95403 14.5079C6.62689 14.5079 5.40116 14.0737 4.41116 13.3396C4.39189 13.324 4.37202 13.309 4.3516 13.2948C2.92251 12.2073 2 10.4883 2 8.55388ZM2.78174 14.5968C1.07898 13.1379 0 10.9719 0 8.55388C0 4.16099 3.56114 0.599854 7.95403 0.599854C12.3469 0.599854 15.9081 4.16099 15.9081 8.55388C15.9081 10.9718 14.8292 13.1377 13.1266 14.5965V21.0707C13.1266 21.4173 12.9471 21.7392 12.6523 21.9214C12.3575 22.1036 11.9893 22.1201 11.6794 21.9652L7.95416 20.1026L4.22895 21.9652C3.91896 22.1201 3.55082 22.1036 3.25601 21.9214C2.96119 21.7392 2.78174 21.4173 2.78174 21.0707V14.5968ZM4.78174 15.8501V19.4527L7.50694 18.0901C7.78847 17.9493 8.11984 17.9493 8.40137 18.0901L11.1266 19.4527V15.85C10.1547 16.2732 9.08175 16.5079 7.95403 16.5079C6.82641 16.5079 5.75359 16.2733 4.78174 15.8501Z" fill="#101010"/>
</g>
</svg>
