<svg viewBox="0 0 52 52" fill="none" xmlns="http://www.w3.org/2000/svg">
<path d="M23.0369 22.1397L25.0985 20.0692V28.7023C25.0985 28.9411 25.1933 29.1701 25.3621 29.3389C25.531 29.5077 25.76 29.6026 25.9987 29.6026C26.2375 29.6026 26.4665 29.5077 26.6353 29.3389C26.8041 29.1701 26.899 28.9411 26.899 28.7023V20.0692L28.9606 22.1397C29.0443 22.2241 29.1439 22.291 29.2536 22.3368C29.3633 22.3825 29.4809 22.406 29.5998 22.406C29.7186 22.406 29.8363 22.3825 29.946 22.3368C30.0557 22.291 30.1553 22.2241 30.239 22.1397C30.3234 22.056 30.3903 21.9564 30.436 21.8467C30.4817 21.737 30.5053 21.6194 30.5053 21.5005C30.5053 21.3817 30.4817 21.264 30.436 21.1543C30.3903 21.0446 30.3234 20.9451 30.239 20.8614L26.6379 17.2605C26.5523 17.1785 26.4513 17.1143 26.3408 17.0714C26.1217 16.9814 25.8758 16.9814 25.6566 17.0714C25.5461 17.1143 25.4452 17.1785 25.3595 17.2605L21.7585 20.8614C21.6746 20.9453 21.608 21.045 21.5625 21.1546C21.5171 21.2643 21.4937 21.3818 21.4937 21.5005C21.4937 21.6192 21.5171 21.7368 21.5625 21.8464C21.608 21.9561 21.6746 22.0558 21.7585 22.1397C21.8424 22.2236 21.9421 22.2902 22.0518 22.3356C22.1614 22.3811 22.279 22.4044 22.3977 22.4044C22.5164 22.4044 22.6339 22.3811 22.7436 22.3356C22.8533 22.2902 22.9529 22.2236 23.0369 22.1397ZM34.1011 26.0017C33.8623 26.0017 33.6334 26.0965 33.4645 26.2653C33.2957 26.4342 33.2008 26.6631 33.2008 26.9019V32.3032C33.2008 32.542 33.106 32.771 32.9372 32.9398C32.7683 33.1086 32.5393 33.2035 32.3006 33.2035H19.6969C19.4581 33.2035 19.2291 33.1086 19.0603 32.9398C18.8915 32.771 18.7966 32.542 18.7966 32.3032V26.9019C18.7966 26.6631 18.7018 26.4342 18.5329 26.2653C18.3641 26.0965 18.1351 26.0017 17.8964 26.0017C17.6576 26.0017 17.4286 26.0965 17.2598 26.2653C17.0909 26.4342 16.9961 26.6631 16.9961 26.9019V32.3032C16.9961 33.0195 17.2806 33.7064 17.7871 34.2129C18.2936 34.7194 18.9806 35.0039 19.6969 35.0039H32.3006C33.0169 35.0039 33.7038 34.7194 34.2103 34.2129C34.7168 33.7064 35.0014 33.0195 35.0014 32.3032V26.9019C35.0014 26.6631 34.9065 26.4342 34.7377 26.2653C34.5689 26.0965 34.3399 26.0017 34.1011 26.0017Z" fill="#969696"/>
<rect x="0.75" y="0.75" width="50.5" height="50.5" rx="11.25" stroke="#969696" stroke-width="1.5"/>
</svg>
