<svg width="24" height="24" viewBox="0 0 24 24" fill="none" xmlns="http://www.w3.org/2000/svg">
<path fill-rule="evenodd" clip-rule="evenodd" d="M16 3C16 2.45 16.45 2 17 2C17.55 2 18 2.45 18 3V4H19C20.1 4 21 4.9 21 6V20C21 21.1 20.1 22 19 22H5C4.46957 22 3.96086 21.7893 3.58579 21.4142C3.21071 21.0391 3 20.5304 3 20L3.01 6C3.01 4.9 3.89 4 5 4H6V3C6 2.45 6.45 2 7 2C7.55 2 8 2.45 8 3V4H16V3ZM5 10V20H19V10H5ZM12 12C11.45 12 11 12.45 11 13C11 13.55 11.45 14 12 14C12.55 14 13 13.55 13 13C13 12.45 12.55 12 12 12ZM8 12C7.45 12 7 12.45 7 13C7 13.55 7.45 14 8 14C8.55 14 9 13.55 9 13C9 12.45 8.55 12 8 12ZM16 12C15.45 12 15 12.45 15 13C15 13.55 15.45 14 16 14C16.55 14 17 13.55 17 13C17 12.45 16.55 12 16 12ZM12 16C11.45 16 11 16.45 11 17C11 17.55 11.45 18 12 18C12.55 18 13 17.55 13 17C13 16.45 12.55 16 12 16ZM8 16C7.45 16 7 16.45 7 17C7 17.55 7.45 18 8 18C8.55 18 9 17.55 9 17C9 16.45 8.55 16 8 16ZM16 16C15.45 16 15 16.45 15 17C15 17.55 15.45 18 16 18C16.55 18 17 17.55 17 17C17 16.45 16.55 16 16 16ZM19 8H5V6H19V8Z" fill="#101010"/>
</svg>
