<svg viewBox="0 0 34 34" fill="none" xmlns="http://www.w3.org/2000/svg">
<path d="M19.9856 2.23125C19.108 -0.74375 14.892 -0.74375 14.0144 2.23125L13.8019 2.95375C13.6707 3.39914 13.4416 3.80953 13.1312 4.15483C12.8208 4.50012 12.4371 4.77157 12.0082 4.94926C11.5792 5.12695 11.1159 5.20638 10.6523 5.18172C10.1887 5.15706 9.73642 5.02894 9.32875 4.80675L8.67 4.4455C5.94362 2.96225 2.96225 5.94362 4.44762 8.66788L4.80675 9.32875C5.7545 11.0712 4.85563 13.2409 2.95375 13.8019L2.23125 14.0144C-0.74375 14.892 -0.74375 19.108 2.23125 19.9856L2.95375 20.1981C3.39914 20.3293 3.80953 20.5584 4.15483 20.8688C4.50012 21.1792 4.77157 21.5629 4.94926 21.9918C5.12695 22.4208 5.20638 22.8841 5.18172 23.3477C5.15706 23.8113 5.02894 24.2636 4.80675 24.6712L4.4455 25.33C2.96225 28.0564 5.94362 31.0377 8.66788 29.5524L9.32875 29.1933C9.73642 28.9711 10.1887 28.8429 10.6523 28.8183C11.1159 28.7936 11.5792 28.873 12.0082 29.0507C12.4371 29.2284 12.8208 29.4999 13.1312 29.8452C13.4416 30.1905 13.6707 30.6009 13.8019 31.0462L14.0144 31.7687C14.892 34.7437 19.108 34.7437 19.9856 31.7687L20.1981 31.0462C20.3293 30.6009 20.5584 30.1905 20.8688 29.8452C21.1792 29.4999 21.5629 29.2284 21.9918 29.0507C22.4208 28.873 22.8841 28.7936 23.3477 28.8183C23.8113 28.8429 24.2636 28.9711 24.6712 29.1933L25.33 29.5545C28.0564 31.0378 31.0377 28.0564 29.5524 25.3321L29.1933 24.6712C28.9711 24.2636 28.8429 23.8113 28.8183 23.3477C28.7936 22.8841 28.873 22.4208 29.0507 21.9918C29.2284 21.5629 29.4999 21.1792 29.8452 20.8688C30.1905 20.5584 30.6009 20.3293 31.0462 20.1981L31.7687 19.9856C34.7437 19.108 34.7437 14.892 31.7687 14.0144L31.0462 13.8019C30.6009 13.6707 30.1905 13.4416 29.8452 13.1312C29.4999 12.8208 29.2284 12.4371 29.0507 12.0082C28.873 11.5792 28.7936 11.1159 28.8183 10.6523C28.8429 10.1887 28.9711 9.73642 29.1933 9.32875L29.5545 8.67C31.0378 5.94362 28.0564 2.96225 25.3321 4.44762L24.6712 4.80675C24.2636 5.02894 23.8113 5.15706 23.3477 5.18172C22.8841 5.20638 22.4208 5.12695 21.9918 4.94926C21.5629 4.77157 21.1792 4.50012 20.8688 4.15483C20.5584 3.80953 20.3293 3.39914 20.1981 2.95375L19.9856 2.23125ZM17 23.2262C15.3487 23.2262 13.765 22.5703 12.5974 21.4026C11.4297 20.235 10.7738 18.6513 10.7738 17C10.7738 15.3487 11.4297 13.765 12.5974 12.5974C13.765 11.4297 15.3487 10.7738 17 10.7738C18.6507 10.7738 20.2339 11.4295 21.4011 12.5968C22.5684 13.764 23.2241 15.3471 23.2241 16.9979C23.2241 18.6486 22.5684 20.2317 21.4011 21.399C20.2339 22.5662 18.6507 23.222 17 23.222V23.2262Z" fill="#101010"/>
</svg>
