<svg viewBox="0 0 52 52" fill="none" xmlns="http://www.w3.org/2000/svg">
<path d="M22.25 35.75H17.797C17.5856 35.75 17.3829 35.666 17.2334 35.5166C17.084 35.3671 17 35.1644 17 34.953V30.5C16.9996 30.3965 17.0197 30.294 17.059 30.1983C17.0983 30.1025 17.1561 30.0155 17.2291 29.9422L29.1835 17.9878C29.2577 17.9125 29.3461 17.8527 29.4436 17.8118C29.541 17.771 29.6457 17.75 29.7514 17.75C29.857 17.75 29.9617 17.771 30.0592 17.8118C30.1566 17.8527 30.245 17.9125 30.3192 17.9878L34.7622 22.4308C34.8375 22.505 34.8973 22.5934 34.9382 22.6908C34.979 22.7883 35 22.893 35 22.9986C35 23.1043 34.979 23.209 34.9382 23.3064C34.8973 23.4039 34.8375 23.4923 34.7622 23.5665L22.8078 35.5209C22.7345 35.5939 22.6475 35.6517 22.5517 35.691C22.456 35.7303 22.3535 35.7504 22.25 35.75V35.75Z" stroke="#D9E2EC" stroke-width="2" stroke-linecap="round" stroke-linejoin="round"/>
<path d="M26.5645 20.6074L32.1432 26.1861" stroke="#D9E2EC" stroke-width="2" stroke-linecap="round" stroke-linejoin="round"/>
<rect x="0.75" y="1.5" width="50.5" height="50.5" rx="11.25" stroke="#D9E2EC" stroke-width="1.5"/>
</svg>
