<svg viewBox="0 0 52 52" fill="none" xmlns="http://www.w3.org/2000/svg">
<path d="M24 20H28C28 19.4696 27.7893 18.9609 27.4142 18.5858C27.0391 18.2107 26.5304 18 26 18C25.4696 18 24.9609 18.2107 24.5858 18.5858C24.2107 18.9609 24 19.4696 24 20ZM22 20C22 18.9391 22.4214 17.9217 23.1716 17.1716C23.9217 16.4214 24.9391 16 26 16C27.0609 16 28.0783 16.4214 28.8284 17.1716C29.5786 17.9217 30 18.9391 30 20H35C35.2652 20 35.5196 20.1054 35.7071 20.2929C35.8946 20.4804 36 20.7348 36 21C36 21.2652 35.8946 21.5196 35.7071 21.7071C35.5196 21.8946 35.2652 22 35 22H34.118L33.232 32.34C33.1468 33.3385 32.69 34.2686 31.9519 34.9463C31.2137 35.6241 30.2481 36.0001 29.246 36H22.754C21.7519 36.0001 20.7863 35.6241 20.0481 34.9463C19.31 34.2686 18.8532 33.3385 18.768 32.34L17.882 22H17C16.7348 22 16.4804 21.8946 16.2929 21.7071C16.1054 21.5196 16 21.2652 16 21C16 20.7348 16.1054 20.4804 16.2929 20.2929C16.4804 20.1054 16.7348 20 17 20H22ZM29 26C29 25.7348 28.8946 25.4804 28.7071 25.2929C28.5196 25.1054 28.2652 25 28 25C27.7348 25 27.4804 25.1054 27.2929 25.2929C27.1054 25.4804 27 25.7348 27 26V30C27 30.2652 27.1054 30.5196 27.2929 30.7071C27.4804 30.8946 27.7348 31 28 31C28.2652 31 28.5196 30.8946 28.7071 30.7071C28.8946 30.5196 29 30.2652 29 30V26ZM24 25C24.2652 25 24.5196 25.1054 24.7071 25.2929C24.8946 25.4804 25 25.7348 25 26V30C25 30.2652 24.8946 30.5196 24.7071 30.7071C24.5196 30.8946 24.2652 31 24 31C23.7348 31 23.4804 30.8946 23.2929 30.7071C23.1054 30.5196 23 30.2652 23 30V26C23 25.7348 23.1054 25.4804 23.2929 25.2929C23.4804 25.1054 23.7348 25 24 25ZM20.76 32.17C20.8026 32.6694 21.0312 33.1346 21.4004 33.4735C21.7697 33.8124 22.2528 34.0003 22.754 34H29.246C29.7469 33.9998 30.2294 33.8117 30.5983 33.4728C30.9671 33.134 31.1954 32.6691 31.238 32.17L32.11 22H19.89L20.762 32.17H20.76Z" fill="#D9E2EC"/>
<rect x="0.75" y="0.75" width="50.5" height="50.5" rx="11.25" stroke="#D9E2EC" stroke-width="1.5"/>
</svg>
